<?xml version="1.0" encoding="UTF-8"?><svg id="Layer_1" xmlns="http://www.w3.org/2000/svg" width="3.11in" height=".5in" viewBox="0 0 223.65 36"><defs><style>.cls-1{fill:#f9f9f9;}</style></defs><path class="cls-1" d="M22.99,19.19c-.05.51-.1,1.06-.14,1.61-.1,1.33-.34,2.67-.67,4-.1.55-.14,1.15-.1,1.7,0,.5.19.97.53,1.38.43.6.92,1.2,1.4,1.7.29.32.43.6.43.97.1.6.14,1.2-.05,1.79-.1.18-.19.41-.34.6-.48.74-.92,1.47-1.69,1.93-.24.18-.43.41-.77.41-.43,0-.91,0-1.3-.23-.82-.37-1.3-1.06-1.78-1.7-.14-.18-.24-.32-.34-.51-.14-.18-.29-.28-.48-.32-.38-.05-.72-.05-1.06.14-.05.05-.14.09-.19.14-.48.23-.96.41-1.45.6-.87.32-1.74.46-2.6.46-.82.05-1.59.05-2.41,0-.77-.05-1.59-.14-2.31-.41-.87-.37-1.74-.78-2.56-1.29-.77-.46-1.3-1.15-1.83-1.84-.96-1.24-1.69-2.58-2.02-4.09-.19-.92-.39-1.84-.63-2.76-.29-1.43-.53-2.85-.58-4.28-.05-.92-.1-1.79.05-2.67.24-1.24.29-2.49.63-3.73.34-1.2.63-2.39,1.06-3.54.63-1.56,1.35-3.08,2.31-4.46.63-.87,1.4-1.56,2.31-2.16.24-.14.48-.32.72-.5.1-.09.14-.14.24-.18,1.25-.6,2.51-1.1,3.95-1.06.96,0,1.88.05,2.8.18,1.25.18,2.46.46,3.52,1.2,1.11.74,2.07,1.61,2.75,2.76.72,1.1,1.35,2.21,1.74,3.45.19.74.48,1.43.58,2.16.1.69.14,1.38.19,2.02,0,.18.05.37.05.55.24,1.06.29,2.16.29,3.22-.1.92-.14,1.84-.24,2.76ZM6.85,20.11c.24,1.7.53,3.4,1.35,4.97.34.6.63,1.2,1.35,1.52.48.28,1.01.46,1.54.55h.53c.24-.05.43-.18.53-.41.14-.37.14-.83-.1-1.15-.39-.51-.53-1.1-.72-1.7-.05-.14-.1-.32-.1-.51-.05-.74.14-1.43.48-2.12.48-1.01,1.69-2.16,3.42-1.98.24.05.48.09.67.23.34.28.63.18.77-.18.19-.69.38-1.33.43-2.02,0-1.47-.05-2.99-.34-4.46-.19-1.1-.43-2.16-.96-3.18-.38-.74-.92-1.33-1.69-1.66-.82-.28-1.69-.51-2.6-.51-.92-.05-1.78.28-2.51.87-.48.37-.67.87-.87,1.38-.38,1.1-.63,2.26-.87,3.41-.34,1.56-.38,3.13-.43,4.74.05.74.05,1.52.1,2.21Z"/><path class="cls-1" d="M29.94,16.29c-.05-1.24-.14-2.48-.19-3.73-.05-1.79-.1-3.54.05-5.34,0-.51,0-1.01-.05-1.52-.1-.88-.1-1.75.1-2.62.1-.46.19-.97.39-1.43.34-.92,1.01-1.47,2.07-1.52h.92c.77.05,1.54.05,2.36.09h.34c1.21-.18,2.46-.23,3.66-.23.96,0,1.88,0,2.84.09.96.09,1.98.18,2.89.69.48.23.92.51,1.3.92.43.55.87,1.06,1.21,1.66.77,1.2,1.25,2.53,1.49,3.91.1.74.14,1.38.1,2.12,0,.6,0,1.29-.1,1.89-.14.97-.34,1.89-.87,2.71-.24.37-.53.74-.92,1.06-.34.37-.38.74-.34,1.2.05.05.1.14.14.18.19.23.34.46.53.64.53.55.87,1.15,1.11,1.84.14.55.39,1.06.48,1.61.19,1.01.24,2.02.19,3.04-.05.73-.14,1.47-.19,2.25-.1.69-.19,1.38-.29,2.07-.1.32-.19.64-.34.97-.39.87-.87,1.66-1.49,2.39-.87,1.01-1.93,1.56-3.28,1.66-.43.05-.92.14-1.35.18-.48.05-.96.05-1.4.09-.87,0-1.69,0-2.55-.05-.82,0-1.69-.05-2.56-.14-1.25-.14-2.51-.18-3.76-.05-.58.05-1.06-.18-1.54-.51-.82-.64-1.06-1.47-1.01-2.44,0-1.38.05-2.76.1-4.19,0-1.15.05-2.35.05-3.5-.05-2.03-.05-4-.1-6.03ZM36.98,9.94c0,.64-.05,1.24,0,1.89,0,.74.63,1.2,1.4,1.1.14-.05.34-.05.48-.05.77-.05,1.54-.09,2.27-.14.63-.09,1.11-.41,1.49-.88.14-.18.19-.37.19-.6,0-1.1-.29-2.16-.82-3.18-.38-.83-1.16-1.1-2.07-1.2-.63-.09-1.25,0-1.88.09-.58.05-1.16.41-1.16,1.24.05.55,0,1.15,0,1.7h.1ZM37.51,26.18c.05.18.14.41.24.6.05.14.24.23.43.23,1.5,0,2.94-.18,4.24-.97.72-.46,1.16-1.1,1.25-1.89.1-1.29-.14-2.53-.77-3.68-.38-.78-1.06-1.2-1.98-1.33-.96-.09-1.93-.09-2.89.09-.19.05-.34.14-.43.32-.19.51-.34,1.01-.29,1.52v1.75c.1,1.15.14,2.26.19,3.36Z"/><path class="cls-1" d="M57.22,10.5c-.24,0-.44,0-.75-.02,0,2.67.02,4.87.05,5.49.02.69.19.95.75,1.13l-.02.12c-.34-.05-.9-.07-1.38-.07s-1.07.02-1.41.07l-.02-.12c.56-.18.73-.44.75-1.13.02-.63.05-2.83.05-6.42s-.02-5.8-.05-6.42c-.02-.86-.39-1.04-.75-1.07v-.12c.82-.04,1.91-.07,2.79-.07,4.77,0,6.81,1.69,6.81,4.08,0,3.06-2.67,4.55-6.81,4.55ZM56.52,2.29c-.02,1.3-.05,3.66-.05,7.74.36.02.73.02,1.11.02,3.64,0,5.07-1.65,5.07-4.11,0-3.01-2.18-3.66-6.13-3.66Z"/><path class="cls-1" d="M77.95,16.99c-.34.23-.66.37-1.14.37-1.62,0-2.37-1.83-3.15-3.73-.75-1.79-1.7-3.5-3.23-3.73-.53,0-.99,0-1.45-.05,0,3.29.02,5.49.05,6.12.02.69.19.95.75,1.13l-.02.12c-.34-.05-.9-.07-1.38-.07s-1.07.02-1.41.07l-.02-.12c.56-.18.73-.44.75-1.13.02-.63.05-2.83.05-6.42s-.02-5.8-.05-6.42c-.02-.86-.41-1.04-.75-1.07v-.12c.82-.04,1.91-.07,2.79-.07,4.46,0,6.37,1.74,6.37,3.82,0,2.25-1.67,3.64-4.75,4.11,1.43.39,2.52,2.23,3.51,3.92,1.67,2.83,2.15,3.29,3.03,3.13l.05.14ZM68.98,9.41c.31.02.65.05,1.01.05,3.37,0,4.7-1.53,4.7-3.76,0-2.62-1.96-3.46-5.67-3.46-.02,1.37-.05,3.71-.05,7.17Z"/><path class="cls-1" d="M87.85,17.55c-4.68,0-8.55-3.15-8.55-8s3.88-8,8.55-8,8.53,3.13,8.53,8-3.88,8-8.53,8ZM87.85,2.04c-3.97,0-7.17,2.83-7.17,7.51s3.2,7.51,7.17,7.51,7.17-2.83,7.17-7.51-3.23-7.51-7.17-7.51Z"/><path class="cls-1" d="M103.78,17.27c-1.23,0-2.52-.02-3.76-.11v-.11c.41-.07.73-.21.75-1.07.02-.63.05-2.83.05-6.42s-.02-5.8-.05-6.42c-.02-.86-.39-1.04-.75-1.07v-.12c.83-.04,1.77-.07,3.69-.07,5.16,0,9.3,2.13,9.3,7.47,0,3.71-2.47,7.93-9.23,7.93ZM103.05,2.27c-.32,0-.58,0-.94.02-.02,1.74-.05,4.43-.05,7.26,0,3.78.02,5.8.07,7.3.34.02.7.02,1.07.02,5.82,0,8.43-2.83,8.43-7.53,0-3.83-2.15-7.07-8.58-7.07Z"/><path class="cls-1" d="M130.81,1.99c-.32.1-.7.28-.75.95-.05.81-.14,2.99-.14,8.23,0,3.92-2.11,6.38-5.99,6.38s-6.57-1.69-6.57-6.12c0-5.48-.02-7.68-.05-8.3-.02-.7-.19-.95-.75-1.14l.02-.11c.34.05.92.07,1.41.07s1.04-.02,1.38-.07l.02.11c-.56.19-.72.44-.75,1.12-.02.65-.05,2.85-.05,8.32,0,3.59,2.21,5.42,5.67,5.42,3.15,0,5.18-1.9,5.18-5.68,0-5.24-.1-7.42-.14-8.23-.05-.67-.44-.86-.75-.95l.02-.11c.34.05.73.07,1.12.07.36,0,.75-.02,1.09-.07l.02.11Z"/><path class="cls-1" d="M134.36,9.55c0-4.87,3.97-8,8.65-8,2.4,0,4.9.74,6.38,2.18l.1,1.33-.14.04c-1.14-2.27-3.66-3.06-6.33-3.06-3.97,0-7.27,2.83-7.27,7.51s3.29,7.51,7.27,7.51c3.03,0,4.75-.93,6.42-2.99l.14.07-.1.93c-1.53,1.53-3.71,2.48-6.47,2.48-4.68,0-8.65-3.15-8.65-8Z"/><path class="cls-1" d="M164.47,3.45c-1.43-.9-2.93-1.13-5.5-1.13h-.54v7.23c0,3.59.02,5.8.05,6.42.02.69.2.95.75,1.13l-.02.12c-.34-.05-.9-.07-1.4-.07-.46,0-1.04.02-1.38.07l-.02-.12c.56-.18.73-.44.75-1.13.02-.63.05-2.83.05-6.42V2.32h-.56c-2.57,0-4.07.23-5.48,1.13l-.12-.09c.17-.44.29-.95.39-1.42h12.75c.1.46.24.98.41,1.42l-.12.09Z"/><path class="cls-1" d="M169.6,17.23c-.34-.05-.9-.07-1.38-.07s-1.07.02-1.41.07l-.02-.12c.56-.18.73-.44.75-1.13.02-.63.05-2.83.05-6.42s-.02-5.8-.05-6.42c-.02-.7-.19-.95-.75-1.14l.02-.11c.34.05.92.07,1.41.07s1.04-.02,1.38-.07l.02.11c-.56.19-.73.44-.75,1.12-.02.65-.05,2.85-.05,6.44s.02,5.8.05,6.42c.02.69.19.95.75,1.13l-.02.12Z"/><path class="cls-1" d="M181.81,17.55c-4.68,0-8.55-3.15-8.55-8s3.88-8,8.55-8,8.53,3.13,8.53,8-3.88,8-8.53,8ZM181.81,2.04c-3.97,0-7.17,2.83-7.17,7.51s3.2,7.51,7.17,7.51,7.17-2.83,7.17-7.51-3.23-7.51-7.17-7.51Z"/><path class="cls-1" d="M208.85,1.99c-.32.1-.7.28-.75.95-.05.81-.15,2.99-.15,6.61s.05,6.59.12,8.09h-.27c-4.75-5.66-8.6-10.08-12.57-14.63.02,1.51.02,3.04.02,6.54s.1,5.8.14,6.61c.05.67.44.86.75.95l-.02.12c-.34-.05-.73-.07-1.09-.07-.39,0-.78.02-1.12.07l-.02-.12c.32-.09.7-.28.75-.95.05-.81.14-2.99.14-6.61s-.02-5.8-.05-6.42c-.02-.7-.19-.95-.75-1.14l.02-.11c.34.05.7.07,1.02.07.34,0,.68,0,1.02-.02,4.24,5.05,8.06,9.43,11.46,13.31,0-1.32-.02-2.88-.02-5.68,0-3.61-.1-5.8-.14-6.61-.05-.67-.44-.86-.75-.95l.02-.11c.34.05.73.07,1.12.07.36,0,.75-.02,1.09-.07l.02.11Z"/><path class="cls-1" d="M217.05,17.55c-1.94,0-3.58-.72-4.6-1.5l-.36-1.67.2-.07c1.04,1.67,2.86,2.76,4.82,2.76,2.47,0,3.95-1.65,3.95-3.46,0-2.32-2.11-3.25-4.29-4.13-2.08-.84-4.04-1.81-4.04-4.2s2.06-3.73,4.65-3.73c1.81,0,2.86.44,3.7,1.16l.22,1.34-.12.1c-1-1.6-2.23-2.11-3.92-2.11s-3.54.95-3.54,2.87c0,2.02,1.79,2.71,3.81,3.48,2.3.88,4.63,1.92,4.63,4.75,0,2.62-2.08,4.4-5.09,4.4Z"/><path class="cls-1" d="M59.62,23.18c.63.56.95,1.35.95,2.35,0,.58-.11,1.12-.35,1.63s-.61.91-1.13,1.23c-.52.32-1.17.47-1.96.47h-1.53v3.8h-1.38v-10.31h2.77c1.12,0,2,.28,2.63.84ZM58.34,27.2c.31-.21.53-.46.66-.77.13-.3.2-.59.2-.88,0-.49-.16-.93-.48-1.32-.33-.38-.83-.57-1.51-.57h-1.6v3.85h1.53c.49,0,.9-.11,1.21-.31Z"/><path class="cls-1" d="M70.88,32.65h-1.38v-4.52h-5.4v4.52h-1.38v-10.31h1.38v4.46h5.4v-4.46h1.38v10.31Z"/><path class="cls-1" d="M73.92,24.88c.47-.81,1.12-1.45,1.92-1.93.8-.48,1.68-.72,2.63-.72s1.82.24,2.63.72c.8.48,1.45,1.12,1.93,1.93.48.81.72,1.68.72,2.62s-.24,1.83-.71,2.64c-.48.8-1.12,1.45-1.93,1.91-.81.47-1.69.71-2.63.71s-1.83-.23-2.64-.7-1.45-1.1-1.92-1.9c-.47-.8-.7-1.69-.7-2.66s.23-1.81.71-2.62ZM75.14,29.47c.34.6.81,1.07,1.41,1.42.59.35,1.24.53,1.94.53s1.35-.17,1.93-.52,1.05-.82,1.38-1.43c.34-.6.51-1.26.51-1.98s-.17-1.37-.51-1.98c-.34-.61-.81-1.09-1.4-1.44-.59-.35-1.24-.53-1.94-.53s-1.35.18-1.94.54c-.59.35-1.05.84-1.39,1.45-.34.61-.51,1.27-.51,1.98s.17,1.35.51,1.96Z"/><path class="cls-1" d="M91.71,22.34v1.33h-2.77v8.98h-1.38v-8.98h-2.69v-1.33h6.84Z"/><path class="cls-1" d="M93.56,24.88c.47-.81,1.12-1.45,1.92-1.93.8-.48,1.68-.72,2.63-.72s1.82.24,2.63.72c.8.48,1.45,1.12,1.93,1.93.48.81.72,1.68.72,2.62s-.24,1.83-.71,2.64c-.48.8-1.12,1.45-1.93,1.91-.81.47-1.69.71-2.63.71s-1.83-.23-2.64-.7-1.45-1.1-1.92-1.9c-.47-.8-.7-1.69-.7-2.66s.23-1.81.71-2.62ZM94.78,29.47c.34.6.81,1.07,1.41,1.42.59.35,1.24.53,1.94.53s1.35-.17,1.93-.52,1.05-.82,1.38-1.43c.34-.6.51-1.26.51-1.98s-.17-1.37-.51-1.98c-.34-.61-.81-1.09-1.4-1.44-.59-.35-1.24-.53-1.94-.53s-1.35.18-1.94.54c-.59.35-1.05.84-1.39,1.45-.34.61-.51,1.27-.51,1.98s.17,1.35.51,1.96Z"/><path class="cls-1" d="M111.25,22.54v13.46h-1.21v-13.46h1.21Z"/><path class="cls-1" d="M124.03,29.94h-3.96l-1.1,2.71h-1.37l4.51-10.74h.09l4.5,10.74h-1.59l-1.07-2.71ZM123.56,28.74l-1.47-3.77-1.53,3.77h3Z"/><path class="cls-1" d="M129.98,30.23c.22.36.51.66.89.87.37.21.79.32,1.25.32s.9-.11,1.29-.32c.39-.21.69-.5.9-.87.22-.37.33-.78.33-1.24v-6.66h1.35v6.7c0,.73-.17,1.38-.51,1.95-.34.56-.81,1-1.4,1.31s-1.24.46-1.97.46-1.36-.15-1.96-.46c-.59-.31-1.05-.75-1.39-1.31-.34-.56-.51-1.22-.51-1.95v-6.7h1.38v6.66c0,.46.11.87.33,1.23Z"/><path class="cls-1" d="M138.84,22.34h2.82c1.28,0,2.35.25,3.19.76s1.46,1.16,1.84,1.97c.39.8.58,1.65.58,2.55,0,1-.23,1.88-.7,2.65s-1.09,1.35-1.87,1.77c-.78.42-1.63.62-2.54.62h-3.32v-10.31ZM141.89,31.31c.76,0,1.44-.15,2.04-.45s1.07-.73,1.4-1.31c.34-.57.51-1.25.51-2.04s-.18-1.5-.53-2.08c-.35-.58-.82-1.02-1.41-1.32-.58-.3-1.22-.45-1.89-.45h-1.79v7.64h1.67Z"/><path class="cls-1" d="M150.97,22.34v10.31h-1.38v-10.31h1.38Z"/><path class="cls-1" d="M154.01,24.88c.47-.81,1.12-1.45,1.92-1.93.8-.48,1.68-.72,2.63-.72s1.82.24,2.63.72c.8.48,1.45,1.12,1.93,1.93.48.81.72,1.68.72,2.62s-.24,1.83-.71,2.64c-.48.8-1.12,1.45-1.93,1.91-.81.47-1.69.71-2.63.71s-1.83-.23-2.64-.7-1.45-1.1-1.92-1.9c-.47-.8-.7-1.69-.7-2.66s.23-1.81.71-2.62ZM155.24,29.47c.34.6.81,1.07,1.41,1.42.59.35,1.24.53,1.94.53s1.35-.17,1.93-.52,1.05-.82,1.38-1.43c.34-.6.51-1.26.51-1.98s-.17-1.37-.51-1.98c-.34-.61-.81-1.09-1.4-1.44-.59-.35-1.24-.53-1.94-.53s-1.35.18-1.94.54c-.59.35-1.05.84-1.39,1.45-.34.61-.51,1.27-.51,1.98s.17,1.35.51,1.96Z"/><path class="cls-1" d="M171.71,22.54v13.46h-1.21v-13.46h1.21Z"/><path class="cls-1" d="M187.28,22.34l-4.55,10.79-4.55-10.79h1.64l2.97,7.43,2.87-7.43h1.62Z"/><path class="cls-1" d="M190.72,22.34v10.31h-1.38v-10.31h1.38Z"/><path class="cls-1" d="M193.69,22.34h2.82c1.28,0,2.35.25,3.19.76s1.46,1.16,1.84,1.97c.39.8.58,1.65.58,2.55,0,1-.23,1.88-.7,2.65s-1.09,1.35-1.87,1.77c-.78.42-1.63.62-2.54.62h-3.32v-10.31ZM196.74,31.31c.76,0,1.44-.15,2.04-.45s1.07-.73,1.4-1.31c.34-.57.51-1.25.51-2.04s-.18-1.5-.53-2.08c-.35-.58-.82-1.02-1.41-1.32-.58-.3-1.22-.45-1.89-.45h-1.79v7.64h1.67Z"/><path class="cls-1" d="M211.14,22.34v1.33h-5.32v3.14h4.75v1.33h-4.75v3.18h5.52v1.34h-6.9v-10.31h6.7Z"/><path class="cls-1" d="M213.83,24.88c.47-.81,1.12-1.45,1.92-1.93.8-.48,1.68-.72,2.63-.72s1.82.24,2.63.72c.8.48,1.45,1.12,1.93,1.93.48.81.72,1.68.72,2.62s-.24,1.83-.71,2.64c-.48.8-1.12,1.45-1.93,1.91-.81.47-1.69.71-2.63.71s-1.83-.23-2.64-.7-1.45-1.1-1.92-1.9c-.47-.8-.7-1.69-.7-2.66s.23-1.81.71-2.62ZM215.05,29.47c.34.6.81,1.07,1.41,1.42.59.35,1.24.53,1.94.53s1.35-.17,1.93-.52,1.05-.82,1.38-1.43c.34-.6.51-1.26.51-1.98s-.17-1.37-.51-1.98c-.34-.61-.81-1.09-1.4-1.44-.59-.35-1.24-.53-1.94-.53s-1.35.18-1.94.54c-.59.35-1.05.84-1.39,1.45-.34.61-.51,1.27-.51,1.98s.17,1.35.51,1.96Z"/></svg>