<?xml version="1.0" encoding="UTF-8"?><svg id="Layer_1" xmlns="http://www.w3.org/2000/svg" width=".32in" height=".05in" viewBox="0 0 22.82 3.67"><defs><style>.cls-1{fill:#f9f9f9;}</style></defs><path class="cls-1" d="M2.35,1.96c0,.05,0,.11-.01.16,0,.14-.03.27-.07.41,0,.06-.01.12,0,.17,0,.05.02.1.05.14.04.06.09.12.14.17.03.03.04.06.04.1,0,.06.01.12,0,.18,0,.02-.02.04-.03.06-.05.08-.09.15-.17.2-.02.02-.04.04-.08.04-.04,0-.09,0-.13-.02-.08-.04-.13-.11-.18-.17-.01-.02-.02-.03-.03-.05-.01-.02-.03-.03-.05-.03-.04,0-.07,0-.11.01,0,0-.01,0-.02.01-.05.02-.1.04-.15.06-.09.03-.18.05-.27.05-.08,0-.16,0-.25,0-.08,0-.16-.01-.24-.04-.09-.04-.18-.08-.26-.13-.08-.05-.13-.12-.19-.19-.1-.13-.17-.26-.21-.42-.02-.09-.04-.19-.06-.28-.03-.15-.05-.29-.06-.44,0-.09,0-.18,0-.27.02-.13.03-.25.06-.38.03-.12.06-.24.11-.36.06-.16.14-.31.24-.46.06-.09.14-.16.24-.22.02-.01.05-.03.07-.05,0,0,.01-.01.02-.02.13-.06.26-.11.4-.11.1,0,.19,0,.29.02.13.02.25.05.36.12.11.08.21.16.28.28.07.11.14.23.18.35.02.08.05.15.06.22,0,.07.01.14.02.21,0,.02,0,.04,0,.06.02.11.03.22.03.33,0,.09-.01.19-.02.28ZM.7,2.05c.02.17.05.35.14.51.03.06.06.12.14.15.05.03.1.05.16.06h.05s.04-.02.05-.04c.01-.04.01-.08,0-.12-.04-.05-.05-.11-.07-.17,0-.01,0-.03,0-.05,0-.08.01-.15.05-.22.05-.1.17-.22.35-.2.02,0,.05,0,.07.02.03.03.06.02.08-.02.02-.07.04-.14.04-.21,0-.15,0-.31-.03-.46-.02-.11-.04-.22-.1-.32-.04-.08-.09-.14-.17-.17-.08-.03-.17-.05-.27-.05-.09,0-.18.03-.26.09-.05.04-.07.09-.09.14-.04.11-.06.23-.09.35-.03.16-.04.32-.04.48,0,.08,0,.15,0,.23Z"/><path class="cls-1" d="M3.05,1.66c0-.13-.01-.25-.02-.38,0-.18,0-.36,0-.54,0-.05,0-.1,0-.15,0-.09,0-.18,0-.27,0-.05.02-.1.04-.15.03-.09.1-.15.21-.15h.09c.08,0,.16,0,.24,0h.03c.12-.02.25-.02.37-.02.1,0,.19,0,.29,0,.1,0,.2.02.3.07.05.02.09.05.13.09.04.06.09.11.12.17.08.12.13.26.15.4,0,.08.01.14,0,.22,0,.06,0,.13,0,.19-.01.1-.03.19-.09.28-.02.04-.05.08-.09.11-.03.04-.04.08-.03.12,0,0,0,.01.01.02.02.02.03.05.05.07.05.06.09.12.11.19.01.06.04.11.05.16.02.1.02.21.02.31,0,.07-.01.15-.02.23,0,.07-.02.14-.03.21,0,.03-.02.07-.03.1-.04.09-.09.17-.15.24-.09.1-.2.16-.33.17-.04,0-.09.01-.14.02-.05,0-.1,0-.14,0-.09,0-.17,0-.26,0-.08,0-.17,0-.26-.01-.13-.01-.26-.02-.38,0-.06,0-.11-.02-.16-.05-.08-.07-.11-.15-.1-.25,0-.14,0-.28,0-.43,0-.12,0-.24,0-.36,0-.21,0-.41,0-.61ZM3.77,1.01c0,.07,0,.13,0,.19,0,.08.06.12.14.11.01,0,.03,0,.05,0,.08,0,.16,0,.23-.01.06,0,.11-.04.15-.09.01-.02.02-.04.02-.06,0-.11-.03-.22-.08-.32-.04-.08-.12-.11-.21-.12-.06,0-.13,0-.19,0-.06,0-.12.04-.12.13,0,.06,0,.12,0,.17h0ZM3.83,2.67s.01.04.02.06c0,.01.02.02.04.02.15,0,.3-.02.43-.1.07-.05.12-.11.13-.19,0-.13-.01-.26-.08-.38-.04-.08-.11-.12-.2-.14-.1,0-.2,0-.3,0-.02,0-.03.01-.04.03-.02.05-.03.1-.03.15v.18c0,.12.01.23.02.34Z"/><path class="cls-1" d="M5.84,1.07s-.04,0-.08,0c0,.27,0,.5,0,.56,0,.07.02.1.08.12h0s-.09,0-.14,0-.11,0-.14,0h0c.06-.03.07-.06.08-.13,0-.06,0-.29,0-.66s0-.59,0-.65c0-.09-.04-.11-.08-.11h0c.08-.02.2-.02.28-.02.49,0,.69.17.69.42,0,.31-.27.46-.69.46ZM5.77.23c0,.13,0,.37,0,.79.04,0,.07,0,.11,0,.37,0,.52-.17.52-.42,0-.31-.22-.37-.63-.37Z"/><path class="cls-1" d="M7.95,1.73s-.07.04-.12.04c-.17,0-.24-.19-.32-.38-.08-.18-.17-.36-.33-.38-.05,0-.1,0-.15,0,0,.34,0,.56,0,.62,0,.07.02.1.08.12h0s-.09,0-.14,0-.11,0-.14,0h0c.06-.03.07-.06.08-.13,0-.06,0-.29,0-.66s0-.59,0-.65c0-.09-.04-.11-.08-.11h0c.08-.02.2-.02.28-.02.45,0,.65.18.65.39,0,.23-.17.37-.48.42.15.04.26.23.36.4.17.29.22.34.31.32h0ZM7.04.96s.07,0,.1,0c.34,0,.48-.16.48-.38,0-.27-.2-.35-.58-.35,0,.14,0,.38,0,.73Z"/><path class="cls-1" d="M8.96,1.79c-.48,0-.87-.32-.87-.82s.4-.82.87-.82.87.32.87.82-.4.82-.87.82ZM8.96.21c-.41,0-.73.29-.73.77s.33.77.73.77.73-.29.73-.77-.33-.77-.73-.77Z"/><path class="cls-1" d="M10.59,1.76c-.13,0-.26,0-.38-.01h0s.07-.03.08-.12c0-.06,0-.29,0-.66s0-.59,0-.65c0-.09-.04-.11-.08-.11h0c.08-.02.18-.02.38-.02.53,0,.95.22.95.76,0,.38-.25.81-.94.81ZM10.51.23s-.06,0-.1,0c0,.18,0,.45,0,.74,0,.39,0,.59,0,.75.03,0,.07,0,.11,0,.59,0,.86-.29.86-.77,0-.39-.22-.72-.88-.72Z"/><path class="cls-1" d="M13.35.2s-.07.03-.08.1c0,.08-.01.31-.01.84,0,.4-.22.65-.61.65s-.67-.17-.67-.62c0-.56,0-.78,0-.85,0-.07-.02-.1-.08-.12h0s.09,0,.14,0,.11,0,.14,0h0c-.06.03-.07.06-.08.13,0,.07,0,.29,0,.85,0,.37.23.55.58.55.32,0,.53-.19.53-.58,0-.53,0-.76-.01-.84,0-.07-.04-.09-.08-.1h0s.07,0,.11,0c.04,0,.08,0,.11,0h0Z"/><path class="cls-1" d="M13.71.97c0-.5.41-.82.88-.82.25,0,.5.08.65.22v.14s0,0,0,0c-.12-.23-.37-.31-.65-.31-.41,0-.74.29-.74.77s.34.77.74.77c.31,0,.48-.09.66-.31h.01s0,.1,0,.1c-.16.16-.38.25-.66.25-.48,0-.88-.32-.88-.82Z"/><path class="cls-1" d="M16.78.35c-.15-.09-.3-.12-.56-.12h-.05v.74c0,.37,0,.59,0,.66,0,.07.02.1.08.12h0s-.09,0-.14,0c-.05,0-.11,0-.14,0h0c.06-.03.07-.06.08-.13,0-.06,0-.29,0-.66V.24h-.06c-.26,0-.42.02-.56.12h-.01c.02-.05.03-.11.04-.15h1.3s.02.1.04.14h-.01Z"/><path class="cls-1" d="M17.3,1.76s-.09,0-.14,0-.11,0-.14,0h0c.06-.03.07-.06.08-.13,0-.06,0-.29,0-.66s0-.59,0-.65c0-.07-.02-.1-.08-.12h0s.09,0,.14,0,.11,0,.14,0h0c-.06.03-.07.06-.08.13,0,.07,0,.29,0,.66s0,.59,0,.66c0,.07.02.1.08.12h0Z"/><path class="cls-1" d="M18.55,1.79c-.48,0-.87-.32-.87-.82s.4-.82.87-.82.87.32.87.82-.4.82-.87.82ZM18.55.21c-.41,0-.73.29-.73.77s.33.77.73.77.73-.29.73-.77-.33-.77-.73-.77Z"/><path class="cls-1" d="M21.31.2s-.07.03-.08.1c0,.08-.02.31-.02.67s0,.67.01.83h-.03c-.48-.58-.88-1.03-1.28-1.49,0,.15,0,.31,0,.67s0,.59.01.67c0,.07.04.09.08.1h0s-.07,0-.11,0c-.04,0-.08,0-.11,0h0s.07-.04.08-.11c0-.08.01-.31.01-.67s0-.59,0-.65c0-.07-.02-.1-.08-.12h0s.07,0,.1,0c.03,0,.07,0,.1,0,.43.52.82.96,1.17,1.36,0-.13,0-.29,0-.58,0-.37,0-.59-.01-.67,0-.07-.04-.09-.08-.1h0s.07,0,.11,0c.04,0,.08,0,.11,0h0Z"/><path class="cls-1" d="M22.14,1.79c-.2,0-.37-.07-.47-.15l-.04-.17h.02c.11.16.29.27.49.27.25,0,.4-.17.4-.35,0-.24-.21-.33-.44-.42-.21-.09-.41-.18-.41-.43s.21-.38.47-.38c.19,0,.29.04.38.12l.02.14h-.01c-.1-.15-.23-.21-.4-.21s-.36.1-.36.29c0,.21.18.28.39.35.23.09.47.2.47.48,0,.27-.21.45-.52.45Z"/><path class="cls-1" d="M6.08,2.36c.06.06.1.14.1.24,0,.06-.01.11-.04.17s-.06.09-.12.12c-.05.03-.12.05-.2.05h-.16v.39h-.14v-1.05h.28c.11,0,.2.03.27.09ZM5.95,2.78s.05-.05.07-.08c.01-.03.02-.06.02-.09,0-.05-.02-.1-.05-.13-.03-.04-.08-.06-.15-.06h-.16v.39h.16c.05,0,.09-.01.12-.03Z"/><path class="cls-1" d="M7.23,3.33h-.14v-.46h-.55v.46h-.14v-1.05h.14v.46h.55v-.46h.14v1.05Z"/><path class="cls-1" d="M7.54,2.54c.05-.08.11-.15.2-.2.08-.05.17-.07.27-.07s.19.02.27.07c.08.05.15.11.2.2.05.08.07.17.07.27s-.02.19-.07.27c-.05.08-.11.15-.2.2-.08.05-.17.07-.27.07s-.19-.02-.27-.07-.15-.11-.2-.19c-.05-.08-.07-.17-.07-.27s.02-.19.07-.27ZM7.67,3.01c.04.06.08.11.14.15.06.04.13.05.2.05s.14-.02.2-.05.11-.08.14-.15c.03-.06.05-.13.05-.2s-.02-.14-.05-.2c-.04-.06-.08-.11-.14-.15-.06-.04-.13-.05-.2-.05s-.14.02-.2.05c-.06.04-.11.09-.14.15-.03.06-.05.13-.05.2s.02.14.05.2Z"/><path class="cls-1" d="M9.36,2.28v.14h-.28v.92h-.14v-.92h-.27v-.14h.7Z"/><path class="cls-1" d="M9.54,2.54c.05-.08.11-.15.2-.2.08-.05.17-.07.27-.07s.19.02.27.07c.08.05.15.11.2.2.05.08.07.17.07.27s-.02.19-.07.27c-.05.08-.11.15-.2.2-.08.05-.17.07-.27.07s-.19-.02-.27-.07-.15-.11-.2-.19c-.05-.08-.07-.17-.07-.27s.02-.19.07-.27ZM9.67,3.01c.04.06.08.11.14.15.06.04.13.05.2.05s.14-.02.2-.05.11-.08.14-.15c.03-.06.05-.13.05-.2s-.02-.14-.05-.2c-.04-.06-.08-.11-.14-.15-.06-.04-.13-.05-.2-.05s-.14.02-.2.05c-.06.04-.11.09-.14.15-.03.06-.05.13-.05.2s.02.14.05.2Z"/><path class="cls-1" d="M11.35,2.3v1.37h-.12v-1.37h.12Z"/><path class="cls-1" d="M12.65,3.05h-.4l-.11.28h-.14l.46-1.1h0l.46,1.1h-.16l-.11-.28ZM12.61,2.93l-.15-.38-.16.38h.31Z"/><path class="cls-1" d="M13.26,3.08s.05.07.09.09c.04.02.08.03.13.03s.09-.01.13-.03c.04-.02.07-.05.09-.09.02-.04.03-.08.03-.13v-.68h.14v.68c0,.07-.02.14-.05.2-.04.06-.08.1-.14.13s-.13.05-.2.05-.14-.02-.2-.05c-.06-.03-.11-.08-.14-.13-.03-.06-.05-.12-.05-.2v-.68h.14v.68s.01.09.03.13Z"/><path class="cls-1" d="M14.16,2.28h.29c.13,0,.24.03.33.08s.15.12.19.2c.04.08.06.17.06.26,0,.1-.02.19-.07.27s-.11.14-.19.18c-.08.04-.17.06-.26.06h-.34v-1.05ZM14.48,3.19c.08,0,.15-.02.21-.05s.11-.07.14-.13c.03-.06.05-.13.05-.21s-.02-.15-.05-.21c-.04-.06-.08-.1-.14-.13-.06-.03-.12-.05-.19-.05h-.18v.78h.17Z"/><path class="cls-1" d="M15.4,2.28v1.05h-.14v-1.05h.14Z"/><path class="cls-1" d="M15.71,2.54c.05-.08.11-.15.2-.2.08-.05.17-.07.27-.07s.19.02.27.07c.08.05.15.11.2.2.05.08.07.17.07.27s-.02.19-.07.27c-.05.08-.11.15-.2.2-.08.05-.17.07-.27.07s-.19-.02-.27-.07-.15-.11-.2-.19c-.05-.08-.07-.17-.07-.27s.02-.19.07-.27ZM15.84,3.01c.04.06.08.11.14.15.06.04.13.05.2.05s.14-.02.2-.05.11-.08.14-.15c.03-.06.05-.13.05-.2s-.02-.14-.05-.2c-.04-.06-.08-.11-.14-.15-.06-.04-.13-.05-.2-.05s-.14.02-.2.05c-.06.04-.11.09-.14.15-.03.06-.05.13-.05.2s.02.14.05.2Z"/><path class="cls-1" d="M17.52,2.3v1.37h-.12v-1.37h.12Z"/><path class="cls-1" d="M19.11,2.28l-.46,1.1-.46-1.1h.17l.3.76.29-.76h.17Z"/><path class="cls-1" d="M19.46,2.28v1.05h-.14v-1.05h.14Z"/><path class="cls-1" d="M19.76,2.28h.29c.13,0,.24.03.33.08s.15.12.19.2c.04.08.06.17.06.26,0,.1-.02.19-.07.27s-.11.14-.19.18c-.08.04-.17.06-.26.06h-.34v-1.05ZM20.07,3.19c.08,0,.15-.02.21-.05s.11-.07.14-.13c.03-.06.05-.13.05-.21s-.02-.15-.05-.21c-.04-.06-.08-.1-.14-.13-.06-.03-.12-.05-.19-.05h-.18v.78h.17Z"/><path class="cls-1" d="M21.54,2.28v.14h-.54v.32h.48v.14h-.48v.32h.56v.14h-.7v-1.05h.68Z"/><path class="cls-1" d="M21.81,2.54c.05-.08.11-.15.2-.2.08-.05.17-.07.27-.07s.19.02.27.07c.08.05.15.11.2.2.05.08.07.17.07.27s-.02.19-.07.27c-.05.08-.11.15-.2.2-.08.05-.17.07-.27.07s-.19-.02-.27-.07-.15-.11-.2-.19c-.05-.08-.07-.17-.07-.27s.02-.19.07-.27ZM21.94,3.01c.04.06.08.11.14.15.06.04.13.05.2.05s.14-.02.2-.05.11-.08.14-.15c.03-.06.05-.13.05-.2s-.02-.14-.05-.2c-.04-.06-.08-.11-.14-.15-.06-.04-.13-.05-.2-.05s-.14.02-.2.05c-.06.04-.11.09-.14.15-.03.06-.05.13-.05.2s.02.14.05.2Z"/></svg>