<?xml version="1.0" encoding="UTF-8"?><svg id="Layer_1" xmlns="http://www.w3.org/2000/svg" width=".24in" height=".22in" viewBox="0 0 17.28 15.69"><defs><style>.cls-1{fill:#544848;}</style></defs><path class="cls-1" d="M8.18,6.4c-.02.17-.03.35-.05.54-.03.45-.11.89-.23,1.34-.03.18-.05.38-.03.57,0,.17.06.32.18.46.15.2.31.4.47.57.1.11.15.2.15.32.03.2.05.4-.02.6-.03.06-.06.14-.11.2-.16.25-.31.49-.56.64-.08.06-.14.14-.26.14-.14,0-.31,0-.43-.08-.27-.12-.43-.35-.6-.57-.05-.06-.08-.11-.11-.17-.05-.06-.1-.09-.16-.11-.13-.02-.24-.02-.35.05-.02.02-.05.03-.06.05-.16.08-.32.14-.48.2-.29.11-.58.15-.87.15-.27.02-.53.02-.8,0-.26-.02-.53-.05-.77-.14-.29-.12-.58-.26-.85-.43-.26-.15-.43-.38-.61-.61-.32-.41-.56-.86-.68-1.37-.06-.31-.13-.61-.21-.92-.1-.48-.18-.95-.19-1.43-.02-.31-.03-.6.02-.89.08-.41.1-.83.21-1.24.11-.4.21-.8.35-1.18.21-.52.45-1.03.77-1.49.21-.29.47-.52.77-.72.08-.05.16-.11.24-.17.03-.03.05-.05.08-.06.42-.2.84-.37,1.32-.35.32,0,.63.02.93.06.42.06.82.15,1.17.4.37.25.69.54.92.92.24.37.45.74.58,1.15.06.25.16.48.19.72.03.23.05.46.06.68,0,.06.02.12.02.18.08.35.1.72.1,1.07-.03.31-.05.61-.08.92ZM2.79,6.71c.08.57.18,1.14.45,1.66.11.2.21.4.45.51.16.09.34.15.51.18h.18c.08-.02.15-.06.18-.14.05-.12.05-.28-.03-.38-.13-.17-.18-.37-.24-.57-.02-.05-.03-.11-.03-.17-.02-.25.05-.48.16-.71.16-.34.56-.72,1.14-.66.08.02.16.03.23.08.11.09.21.06.26-.06.06-.23.13-.44.14-.68,0-.49-.02-1-.11-1.49-.06-.37-.15-.72-.32-1.06-.13-.25-.31-.44-.56-.55-.27-.09-.56-.17-.87-.17-.31-.02-.6.09-.84.29-.16.12-.23.29-.29.46-.13.37-.21.75-.29,1.14-.11.52-.13,1.04-.14,1.58.02.25.02.51.03.74Z"/><path class="cls-1" d="M10.5,5.43c-.02-.41-.05-.83-.06-1.24-.02-.6-.03-1.18.02-1.78,0-.17,0-.34-.02-.51-.03-.29-.03-.58.03-.88.03-.15.06-.32.13-.48.11-.31.34-.49.69-.51h.31c.26.02.51.02.79.03h.11c.4-.06.82-.08,1.22-.08.32,0,.63,0,.95.03.32.03.66.06.96.23.16.08.31.17.43.31.15.18.29.35.4.55.26.4.42.84.5,1.31.03.25.05.46.03.71,0,.2,0,.43-.03.63-.05.32-.11.63-.29.91-.08.12-.18.25-.31.35-.11.12-.13.25-.11.4.02.02.03.05.05.06.06.08.11.15.18.21.18.18.29.38.37.61.05.18.13.35.16.54.06.34.08.68.06,1.01-.02.25-.05.49-.06.75-.03.23-.06.46-.1.69-.03.11-.06.21-.11.32-.13.29-.29.55-.5.8-.29.34-.64.52-1.09.55-.15.02-.31.05-.45.06-.16.02-.32.02-.47.03-.29,0-.56,0-.85-.02-.27,0-.56-.02-.85-.05-.42-.05-.84-.06-1.25-.02-.19.02-.35-.06-.51-.17-.27-.21-.35-.49-.34-.81,0-.46.02-.92.03-1.4,0-.38.02-.78.02-1.17-.02-.68-.02-1.34-.03-2.01ZM12.85,3.32c0,.21-.02.41,0,.63,0,.25.21.4.47.37.05-.02.11-.02.16-.02.26-.02.51-.03.76-.05.21-.03.37-.14.5-.29.05-.06.06-.12.06-.2,0-.37-.1-.72-.27-1.06-.13-.28-.39-.37-.69-.4-.21-.03-.42,0-.63.03-.19.02-.39.14-.39.41.02.18,0,.38,0,.57h.03ZM13.02,8.73c.02.06.05.14.08.2.02.05.08.08.14.08.5,0,.98-.06,1.42-.32.24-.15.39-.37.42-.63.03-.43-.05-.84-.26-1.23-.13-.26-.35-.4-.66-.44-.32-.03-.64-.03-.96.03-.06.02-.11.05-.15.11-.06.17-.11.34-.1.51v.58c.03.38.05.75.06,1.12Z"/><path class="cls-1" d="M.31,13.09s-.04,0-.08,0c0,.27,0,.5,0,.56,0,.07.02.1.08.12h0s-.09,0-.14,0-.11,0-.14,0h0c.06-.03.07-.06.08-.13,0-.06,0-.29,0-.66s0-.59,0-.65c0-.09-.04-.11-.08-.11H.02c.08-.02.2-.02.28-.02.49,0,.69.17.69.42,0,.31-.27.46-.69.46ZM.23,12.25c0,.13,0,.37,0,.79.04,0,.07,0,.11,0,.37,0,.52-.17.52-.42,0-.31-.22-.37-.63-.37Z"/><path class="cls-1" d="M2.42,13.75s-.07.04-.12.04c-.17,0-.24-.19-.32-.38-.08-.18-.17-.36-.33-.38-.05,0-.1,0-.15,0,0,.34,0,.56,0,.62,0,.07.02.1.08.12h0s-.09,0-.14,0-.11,0-.14,0h0c.06-.03.07-.06.08-.13,0-.06,0-.29,0-.66s0-.59,0-.65c0-.09-.04-.11-.08-.11h0c.08-.02.2-.02.28-.02.45,0,.65.18.65.39,0,.23-.17.37-.48.42.15.04.26.23.36.4.17.29.22.34.31.32h0ZM1.51,12.98s.07,0,.1,0c.34,0,.48-.16.48-.38,0-.27-.2-.35-.58-.35,0,.14,0,.38,0,.73Z"/><path class="cls-1" d="M3.43,13.81c-.48,0-.87-.32-.87-.82s.4-.82.87-.82.87.32.87.82-.4.82-.87.82ZM3.43,12.23c-.41,0-.73.29-.73.77s.33.77.73.77.73-.29.73-.77-.33-.77-.73-.77Z"/><path class="cls-1" d="M5.06,13.78c-.13,0-.26,0-.38-.01h0s.07-.03.08-.12c0-.06,0-.29,0-.66s0-.59,0-.65c0-.09-.04-.11-.08-.11h0c.08-.02.18-.02.38-.02.53,0,.95.22.95.76,0,.38-.25.81-.94.81ZM4.98,12.25s-.06,0-.1,0c0,.18,0,.45,0,.74,0,.39,0,.59,0,.75.03,0,.07,0,.11,0,.59,0,.86-.29.86-.77,0-.39-.22-.72-.88-.72Z"/><path class="cls-1" d="M7.81,12.22s-.07.03-.08.1c0,.08-.01.31-.01.84,0,.4-.22.65-.61.65s-.67-.17-.67-.62c0-.56,0-.78,0-.85,0-.07-.02-.1-.08-.12h0s.09,0,.14,0,.11,0,.14,0h0c-.06.03-.07.06-.08.13,0,.07,0,.29,0,.85,0,.37.23.55.58.55.32,0,.53-.19.53-.58,0-.53,0-.76-.01-.84,0-.07-.04-.09-.08-.1h0s.07,0,.11,0c.04,0,.08,0,.11,0h0Z"/><path class="cls-1" d="M8.18,12.99c0-.5.41-.82.88-.82.25,0,.5.08.65.22v.14s0,0,0,0c-.12-.23-.37-.31-.65-.31-.41,0-.74.29-.74.77s.34.77.74.77c.31,0,.48-.09.66-.31h.01s0,.1,0,.1c-.16.16-.38.25-.66.25-.48,0-.88-.32-.88-.82Z"/><path class="cls-1" d="M11.25,12.37c-.15-.09-.3-.12-.56-.12h-.05v.74c0,.37,0,.59,0,.66,0,.07.02.1.08.12h0s-.09,0-.14,0c-.05,0-.11,0-.14,0h0c.06-.03.07-.06.08-.13,0-.06,0-.29,0-.66v-.74h-.06c-.26,0-.42.02-.56.12h-.01c.02-.05.03-.11.04-.15h1.3s.02.1.04.14h-.01Z"/><path class="cls-1" d="M11.77,13.78s-.09,0-.14,0-.11,0-.14,0h0c.06-.03.07-.06.08-.13,0-.06,0-.29,0-.66s0-.59,0-.65c0-.07-.02-.1-.08-.12h0s.09,0,.14,0,.11,0,.14,0h0c-.06.03-.07.06-.08.13,0,.07,0,.29,0,.66s0,.59,0,.66c0,.07.02.1.08.12h0Z"/><path class="cls-1" d="M13.02,13.81c-.48,0-.87-.32-.87-.82s.4-.82.87-.82.87.32.87.82-.4.82-.87.82ZM13.02,12.23c-.41,0-.73.29-.73.77s.33.77.73.77.73-.29.73-.77-.33-.77-.73-.77Z"/><path class="cls-1" d="M15.77,12.22s-.07.03-.08.1c0,.08-.02.31-.02.67s0,.67.01.83h-.03c-.48-.58-.88-1.03-1.28-1.49,0,.15,0,.31,0,.67s0,.59.01.67c0,.07.04.09.08.1h0s-.07,0-.11,0c-.04,0-.08,0-.11,0h0s.07-.04.08-.11c0-.08.01-.31.01-.67s0-.59,0-.65c0-.07-.02-.1-.08-.12h0s.07,0,.1,0c.03,0,.07,0,.1,0,.43.52.82.96,1.17,1.36,0-.13,0-.29,0-.58,0-.37,0-.59-.01-.67,0-.07-.04-.09-.08-.1h0s.07,0,.11,0c.04,0,.08,0,.11,0h0Z"/><path class="cls-1" d="M16.61,13.81c-.2,0-.37-.07-.47-.15l-.04-.17h.02c.11.16.29.27.49.27.25,0,.4-.17.4-.35,0-.24-.21-.33-.44-.42-.21-.09-.41-.18-.41-.43s.21-.38.47-.38c.19,0,.29.04.38.12l.02.14h-.01c-.1-.15-.23-.21-.4-.21s-.36.1-.36.29c0,.21.18.28.39.35.23.09.47.2.47.48,0,.27-.21.45-.52.45Z"/><path class="cls-1" d="M.55,14.38c.06.06.1.14.1.24,0,.06-.01.11-.04.17s-.06.09-.12.12c-.05.03-.12.05-.2.05h-.16v.39h-.14v-1.05h.28c.11,0,.2.03.27.09ZM.42,14.79s.05-.05.07-.08c.01-.03.02-.06.02-.09,0-.05-.02-.1-.05-.13-.03-.04-.08-.06-.15-.06h-.16v.39h.16c.05,0,.09-.01.12-.03Z"/><path class="cls-1" d="M1.7,15.35h-.14v-.46h-.55v.46h-.14v-1.05h.14v.46h.55v-.46h.14v1.05Z"/><path class="cls-1" d="M2.01,14.56c.05-.08.11-.15.2-.2.08-.05.17-.07.27-.07s.19.02.27.07c.08.05.15.11.2.2.05.08.07.17.07.27s-.02.19-.07.27c-.05.08-.11.15-.2.2-.08.05-.17.07-.27.07s-.19-.02-.27-.07-.15-.11-.2-.19c-.05-.08-.07-.17-.07-.27s.02-.19.07-.27ZM2.13,15.02c.04.06.08.11.14.15.06.04.13.05.2.05s.14-.02.2-.05.11-.08.14-.15c.03-.06.05-.13.05-.2s-.02-.14-.05-.2c-.04-.06-.08-.11-.14-.15-.06-.04-.13-.05-.2-.05s-.14.02-.2.05c-.06.04-.11.09-.14.15-.03.06-.05.13-.05.2s.02.14.05.2Z"/><path class="cls-1" d="M3.82,14.3v.14h-.28v.92h-.14v-.92h-.27v-.14h.7Z"/><path class="cls-1" d="M4.01,14.56c.05-.08.11-.15.2-.2.08-.05.17-.07.27-.07s.19.02.27.07c.08.05.15.11.2.2.05.08.07.17.07.27s-.02.19-.07.27c-.05.08-.11.15-.2.2-.08.05-.17.07-.27.07s-.19-.02-.27-.07-.15-.11-.2-.19c-.05-.08-.07-.17-.07-.27s.02-.19.07-.27ZM4.14,15.02c.04.06.08.11.14.15.06.04.13.05.2.05s.14-.02.2-.05.11-.08.14-.15c.03-.06.05-.13.05-.2s-.02-.14-.05-.2c-.04-.06-.08-.11-.14-.15-.06-.04-.13-.05-.2-.05s-.14.02-.2.05c-.06.04-.11.09-.14.15-.03.06-.05.13-.05.2s.02.14.05.2Z"/><path class="cls-1" d="M5.82,14.32v1.37h-.12v-1.37h.12Z"/><path class="cls-1" d="M7.12,15.07h-.4l-.11.28h-.14l.46-1.1h0l.46,1.1h-.16l-.11-.28ZM7.07,14.95l-.15-.38-.16.38h.31Z"/><path class="cls-1" d="M7.73,15.1s.05.07.09.09c.04.02.08.03.13.03s.09-.01.13-.03c.04-.02.07-.05.09-.09.02-.04.03-.08.03-.13v-.68h.14v.68c0,.07-.02.14-.05.2-.04.06-.08.1-.14.13s-.13.05-.2.05-.14-.02-.2-.05c-.06-.03-.11-.08-.14-.13-.03-.06-.05-.12-.05-.2v-.68h.14v.68s.01.09.03.13Z"/><path class="cls-1" d="M8.63,14.3h.29c.13,0,.24.03.33.08s.15.12.19.2c.04.08.06.17.06.26,0,.1-.02.19-.07.27s-.11.14-.19.18c-.08.04-.17.06-.26.06h-.34v-1.05ZM8.94,15.21c.08,0,.15-.02.21-.05s.11-.07.14-.13c.03-.06.05-.13.05-.21s-.02-.15-.05-.21c-.04-.06-.08-.1-.14-.13-.06-.03-.12-.05-.19-.05h-.18v.78h.17Z"/><path class="cls-1" d="M9.87,14.3v1.05h-.14v-1.05h.14Z"/><path class="cls-1" d="M10.18,14.56c.05-.08.11-.15.2-.2.08-.05.17-.07.27-.07s.19.02.27.07c.08.05.15.11.2.2.05.08.07.17.07.27s-.02.19-.07.27c-.05.08-.11.15-.2.2-.08.05-.17.07-.27.07s-.19-.02-.27-.07-.15-.11-.2-.19c-.05-.08-.07-.17-.07-.27s.02-.19.07-.27ZM10.31,15.02c.04.06.08.11.14.15.06.04.13.05.2.05s.14-.02.2-.05.11-.08.14-.15c.03-.06.05-.13.05-.2s-.02-.14-.05-.2c-.04-.06-.08-.11-.14-.15-.06-.04-.13-.05-.2-.05s-.14.02-.2.05c-.06.04-.11.09-.14.15-.03.06-.05.13-.05.2s.02.14.05.2Z"/><path class="cls-1" d="M11.99,14.32v1.37h-.12v-1.37h.12Z"/><path class="cls-1" d="M13.57,14.3l-.46,1.1-.46-1.1h.17l.3.76.29-.76h.17Z"/><path class="cls-1" d="M13.93,14.3v1.05h-.14v-1.05h.14Z"/><path class="cls-1" d="M14.23,14.3h.29c.13,0,.24.03.33.08s.15.12.19.2c.04.08.06.17.06.26,0,.1-.02.19-.07.27s-.11.14-.19.18c-.08.04-.17.06-.26.06h-.34v-1.05ZM14.54,15.21c.08,0,.15-.02.21-.05s.11-.07.14-.13c.03-.06.05-.13.05-.21s-.02-.15-.05-.21c-.04-.06-.08-.1-.14-.13-.06-.03-.12-.05-.19-.05h-.18v.78h.17Z"/><path class="cls-1" d="M16.01,14.3v.14h-.54v.32h.48v.14h-.48v.32h.56v.14h-.7v-1.05h.68Z"/><path class="cls-1" d="M16.28,14.56c.05-.08.11-.15.2-.2.08-.05.17-.07.27-.07s.19.02.27.07c.08.05.15.11.2.2.05.08.07.17.07.27s-.02.19-.07.27c-.05.08-.11.15-.2.2-.08.05-.17.07-.27.07s-.19-.02-.27-.07-.15-.11-.2-.19c-.05-.08-.07-.17-.07-.27s.02-.19.07-.27ZM16.41,15.02c.04.06.08.11.14.15.06.04.13.05.2.05s.14-.02.2-.05.11-.08.14-.15c.03-.06.05-.13.05-.2s-.02-.14-.05-.2c-.04-.06-.08-.11-.14-.15-.06-.04-.13-.05-.2-.05s-.14.02-.2.05c-.06.04-.11.09-.14.15-.03.06-.05.13-.05.2s.02.14.05.2Z"/></svg>